<mxfile host="Electron" modified="2021-12-08T01:18:55.371Z" agent="5.0 (Windows NT 10.0; Win64; x64) AppleWebKit/537.36 (KHTML, like Gecko) draw.io/15.8.7 Chrome/91.0.4472.164 Electron/13.6.2 Safari/537.36" etag="0AdLcPDiCAd43DVnSKaB" compressed="false" version="15.8.7" type="device">
  <diagram id="C5RBs43oDa-KdzZeNtuy" name="Page-1">
    <mxGraphModel dx="969" dy="746" grid="0" gridSize="10" guides="1" tooltips="1" connect="1" arrows="1" fold="1" page="0" pageScale="1" pageWidth="827" pageHeight="1169" background="none" math="0" shadow="0">
      <root>
        <mxCell id="WIyWlLk6GJQsqaUBKTNV-0" />
        <mxCell id="WIyWlLk6GJQsqaUBKTNV-1" parent="WIyWlLk6GJQsqaUBKTNV-0" />
        <mxCell id="-YjCPfjcMzY9ik9XaDa3-24" style="edgeStyle=orthogonalEdgeStyle;rounded=0;orthogonalLoop=1;jettySize=auto;html=1;exitX=0.5;exitY=0;exitDx=0;exitDy=0;entryX=0.5;entryY=1;entryDx=0;entryDy=0;endArrow=block;endFill=0;endSize=20;strokeWidth=5;" parent="WIyWlLk6GJQsqaUBKTNV-1" source="kBmjaqHGRVyOtR2lZKoP-0" target="-YjCPfjcMzY9ik9XaDa3-8" edge="1">
          <mxGeometry relative="1" as="geometry" />
        </mxCell>
        <mxCell id="kBmjaqHGRVyOtR2lZKoP-0" value="DogBoss" style="swimlane;fontStyle=0;align=center;verticalAlign=top;childLayout=stackLayout;horizontal=1;startSize=26;horizontalStack=0;resizeParent=1;resizeLast=0;collapsible=1;marginBottom=0;rounded=0;shadow=0;strokeWidth=1;fontSize=14;fontFamily=Fira Code;fillColor=#A8DADC;strokeColor=#457B9D;fontColor=#1D3557;" parent="WIyWlLk6GJQsqaUBKTNV-1" vertex="1">
          <mxGeometry x="-206" y="-123" width="355" height="220" as="geometry">
            <mxRectangle x="230" y="140" width="160" height="26" as="alternateBounds" />
          </mxGeometry>
        </mxCell>
        <mxCell id="kBmjaqHGRVyOtR2lZKoP-5" value="+ DogBoss()" style="text;align=left;verticalAlign=top;spacingLeft=4;spacingRight=4;overflow=hidden;rotatable=0;points=[[0,0.5],[1,0.5]];portConstraint=eastwest;fontSize=14;fontFamily=Fira Code;fontColor=#1D3557;" parent="kBmjaqHGRVyOtR2lZKoP-0" vertex="1">
          <mxGeometry y="26" width="355" height="26" as="geometry" />
        </mxCell>
        <mxCell id="lcFVytrIn0AduloStv7e-2" value="+ update() : void" style="text;align=left;verticalAlign=top;spacingLeft=4;spacingRight=4;overflow=hidden;rotatable=0;points=[[0,0.5],[1,0.5]];portConstraint=eastwest;fontSize=14;fontFamily=Fira Code;fontColor=#1D3557;fontStyle=0;" parent="kBmjaqHGRVyOtR2lZKoP-0" vertex="1">
          <mxGeometry y="52" width="355" height="26" as="geometry" />
        </mxCell>
        <mxCell id="lcFVytrIn0AduloStv7e-4" value="+ takeItem(Item*) : bool" style="text;align=left;verticalAlign=top;spacingLeft=4;spacingRight=4;overflow=hidden;rotatable=0;points=[[0,0.5],[1,0.5]];portConstraint=eastwest;fontSize=14;fontFamily=Fira Code;fontColor=#1D3557;fontStyle=0;" parent="kBmjaqHGRVyOtR2lZKoP-0" vertex="1">
          <mxGeometry y="78" width="355" height="26" as="geometry" />
        </mxCell>
        <mxCell id="lcFVytrIn0AduloStv7e-3" value="+ buff(Character*) : void" style="text;align=left;verticalAlign=top;spacingLeft=4;spacingRight=4;overflow=hidden;rotatable=0;points=[[0,0.5],[1,0.5]];portConstraint=eastwest;fontSize=14;fontFamily=Fira Code;fontColor=#1D3557;fontStyle=0;" parent="kBmjaqHGRVyOtR2lZKoP-0" vertex="1">
          <mxGeometry y="104" width="355" height="26" as="geometry" />
        </mxCell>
        <mxCell id="kBmjaqHGRVyOtR2lZKoP-42" value="" style="endArrow=block;endFill=1;endSize=20;html=1;rounded=0;edgeStyle=orthogonalEdgeStyle;strokeWidth=5;exitX=0;exitY=0.5;exitDx=0;exitDy=0;entryX=1;entryY=0.5;entryDx=0;entryDy=0;" parent="WIyWlLk6GJQsqaUBKTNV-1" source="kBmjaqHGRVyOtR2lZKoP-15" target="-YjCPfjcMzY9ik9XaDa3-8" edge="1">
          <mxGeometry width="160" relative="1" as="geometry">
            <mxPoint x="511" y="-386.59000000000003" as="sourcePoint" />
            <mxPoint x="146" y="-533" as="targetPoint" />
          </mxGeometry>
        </mxCell>
        <mxCell id="kBmjaqHGRVyOtR2lZKoP-15" value="BossState" style="swimlane;fontStyle=2;align=center;verticalAlign=top;childLayout=stackLayout;horizontal=1;startSize=26;horizontalStack=0;resizeParent=1;resizeLast=0;collapsible=1;marginBottom=0;rounded=0;shadow=0;strokeWidth=1;fontSize=14;fontFamily=Fira Code;fillColor=#A8DADC;strokeColor=#457B9D;fontColor=#1D3557;" parent="WIyWlLk6GJQsqaUBKTNV-1" vertex="1" collapsed="1">
          <mxGeometry x="131" y="-232" width="160" height="26" as="geometry">
            <mxRectangle x="757" y="-632" width="448" height="400" as="alternateBounds" />
          </mxGeometry>
        </mxCell>
        <mxCell id="lcFVytrIn0AduloStv7e-6" value="+ Type : enum = {Hostile, Vengeful, Friendly, Dead}" style="text;align=left;verticalAlign=top;spacingLeft=4;spacingRight=4;overflow=hidden;rotatable=0;points=[[0,0.5],[1,0.5]];portConstraint=eastwest;fontSize=14;fontFamily=Fira Code;fontColor=#1D3557;" parent="kBmjaqHGRVyOtR2lZKoP-15" vertex="1">
          <mxGeometry y="26" width="160" height="26" as="geometry" />
        </mxCell>
        <mxCell id="lcFVytrIn0AduloStv7e-8" value="# dialoger : Dialoger*" style="text;align=left;verticalAlign=top;spacingLeft=4;spacingRight=4;overflow=hidden;rotatable=0;points=[[0,0.5],[1,0.5]];portConstraint=eastwest;fontSize=14;fontFamily=Fira Code;fontColor=#1D3557;" parent="kBmjaqHGRVyOtR2lZKoP-15" vertex="1">
          <mxGeometry y="52" width="160" height="26" as="geometry" />
        </mxCell>
        <mxCell id="lcFVytrIn0AduloStv7e-9" value="# dialog : Dialog*" style="text;align=left;verticalAlign=top;spacingLeft=4;spacingRight=4;overflow=hidden;rotatable=0;points=[[0,0.5],[1,0.5]];portConstraint=eastwest;fontSize=14;fontFamily=Fira Code;fontColor=#1D3557;" parent="kBmjaqHGRVyOtR2lZKoP-15" vertex="1">
          <mxGeometry y="78" width="160" height="26" as="geometry" />
        </mxCell>
        <mxCell id="lcFVytrIn0AduloStv7e-5" value="" style="line;html=1;strokeWidth=1;align=left;verticalAlign=middle;spacingTop=-1;spacingLeft=3;spacingRight=3;rotatable=0;labelPosition=right;points=[];portConstraint=eastwest;fontSize=14;fontFamily=Fira Code;labelBackgroundColor=#F1FAEE;fillColor=#A8DADC;strokeColor=#457B9D;fontColor=#1D3557;" parent="kBmjaqHGRVyOtR2lZKoP-15" vertex="1">
          <mxGeometry y="104" width="160" height="8" as="geometry" />
        </mxCell>
        <mxCell id="kBmjaqHGRVyOtR2lZKoP-16" value="+ BossState(Type)" style="text;align=left;verticalAlign=top;spacingLeft=4;spacingRight=4;overflow=hidden;rotatable=0;points=[[0,0.5],[1,0.5]];portConstraint=eastwest;fontSize=14;fontFamily=Fira Code;fontColor=#1D3557;" parent="kBmjaqHGRVyOtR2lZKoP-15" vertex="1">
          <mxGeometry y="112" width="160" height="26" as="geometry" />
        </mxCell>
        <mxCell id="kBmjaqHGRVyOtR2lZKoP-17" value="+ ~BossState()" style="text;align=left;verticalAlign=top;spacingLeft=4;spacingRight=4;overflow=hidden;rotatable=0;points=[[0,0.5],[1,0.5]];portConstraint=eastwest;fontSize=14;fontFamily=Fira Code;fontColor=#1D3557;fontStyle=2" parent="kBmjaqHGRVyOtR2lZKoP-15" vertex="1">
          <mxGeometry y="138" width="160" height="26" as="geometry" />
        </mxCell>
        <mxCell id="kBmjaqHGRVyOtR2lZKoP-19" value="+ attack(Character*) : bool" style="text;align=left;verticalAlign=top;spacingLeft=4;spacingRight=4;overflow=hidden;rotatable=0;points=[[0,0.5],[1,0.5]];portConstraint=eastwest;fontSize=14;fontFamily=Fira Code;fontColor=#1D3557;fontStyle=2" parent="kBmjaqHGRVyOtR2lZKoP-15" vertex="1">
          <mxGeometry y="164" width="160" height="26" as="geometry" />
        </mxCell>
        <mxCell id="U8TSZ5BFKTzv4JTzCLFV-6" value="+ transmogrify(Character*) : void" style="text;align=left;verticalAlign=top;spacingLeft=4;spacingRight=4;overflow=hidden;rotatable=0;points=[[0,0.5],[1,0.5]];portConstraint=eastwest;fontSize=14;fontFamily=Fira Code;fontColor=#1D3557;fontStyle=2" parent="kBmjaqHGRVyOtR2lZKoP-15" vertex="1">
          <mxGeometry y="190" width="160" height="26" as="geometry" />
        </mxCell>
        <mxCell id="-YjCPfjcMzY9ik9XaDa3-0" value="+ takeItem(Item*) : bool" style="text;align=left;verticalAlign=top;spacingLeft=4;spacingRight=4;overflow=hidden;rotatable=0;points=[[0,0.5],[1,0.5]];portConstraint=eastwest;fontSize=14;fontFamily=Fira Code;fontColor=#1D3557;fontStyle=2" parent="kBmjaqHGRVyOtR2lZKoP-15" vertex="1">
          <mxGeometry y="216" width="160" height="26" as="geometry" />
        </mxCell>
        <mxCell id="kBmjaqHGRVyOtR2lZKoP-18" value="+ response() : void" style="text;align=left;verticalAlign=top;spacingLeft=4;spacingRight=4;overflow=hidden;rotatable=0;points=[[0,0.5],[1,0.5]];portConstraint=eastwest;fontSize=14;fontFamily=Fira Code;fontColor=#1D3557;fontStyle=2" parent="kBmjaqHGRVyOtR2lZKoP-15" vertex="1">
          <mxGeometry y="242" width="160" height="26" as="geometry" />
        </mxCell>
        <mxCell id="kBmjaqHGRVyOtR2lZKoP-20" value="+ getDescription() : void" style="text;align=left;verticalAlign=top;spacingLeft=4;spacingRight=4;overflow=hidden;rotatable=0;points=[[0,0.5],[1,0.5]];portConstraint=eastwest;fontSize=14;fontFamily=Fira Code;fontColor=#1D3557;fontStyle=2" parent="kBmjaqHGRVyOtR2lZKoP-15" vertex="1">
          <mxGeometry y="268" width="160" height="26" as="geometry" />
        </mxCell>
        <mxCell id="lcFVytrIn0AduloStv7e-7" value="+ printState() : void" style="text;align=left;verticalAlign=top;spacingLeft=4;spacingRight=4;overflow=hidden;rotatable=0;points=[[0,0.5],[1,0.5]];portConstraint=eastwest;fontSize=14;fontFamily=Fira Code;fontColor=#1D3557;fontStyle=2" parent="kBmjaqHGRVyOtR2lZKoP-15" vertex="1">
          <mxGeometry y="294" width="160" height="26" as="geometry" />
        </mxCell>
        <mxCell id="-YjCPfjcMzY9ik9XaDa3-8" value="Boss" style="swimlane;fontStyle=0;align=center;verticalAlign=top;childLayout=stackLayout;horizontal=1;startSize=26;horizontalStack=0;resizeParent=1;resizeLast=0;collapsible=1;marginBottom=0;shadow=0;strokeWidth=1;fontSize=14;fontFamily=Fira Code;fillColor=#A8DADC;strokeColor=#457B9D;fontColor=#1D3557;" parent="WIyWlLk6GJQsqaUBKTNV-1" vertex="1" collapsed="1">
          <mxGeometry x="-108.5" y="-232" width="160" height="26" as="geometry">
            <mxRectangle x="-206" y="-632" width="355" height="433" as="alternateBounds" />
          </mxGeometry>
        </mxCell>
        <mxCell id="-YjCPfjcMzY9ik9XaDa3-9" value="- state : BossState*" style="text;align=left;verticalAlign=top;spacingLeft=4;spacingRight=4;overflow=hidden;rotatable=0;points=[[0,0.5],[1,0.5]];portConstraint=eastwest;fontSize=14;fontFamily=Fira Code;fontColor=#1D3557;" parent="-YjCPfjcMzY9ik9XaDa3-8" vertex="1">
          <mxGeometry y="26" width="160" height="26" as="geometry" />
        </mxCell>
        <mxCell id="-YjCPfjcMzY9ik9XaDa3-11" value="" style="line;html=1;strokeWidth=1;align=left;verticalAlign=middle;spacingTop=-1;spacingLeft=3;spacingRight=3;rotatable=0;labelPosition=right;points=[];portConstraint=eastwest;fontSize=14;fontFamily=Fira Code;labelBackgroundColor=#F1FAEE;fillColor=#A8DADC;strokeColor=#457B9D;fontColor=#1D3557;" parent="-YjCPfjcMzY9ik9XaDa3-8" vertex="1">
          <mxGeometry y="52" width="160" height="8" as="geometry" />
        </mxCell>
        <mxCell id="-YjCPfjcMzY9ik9XaDa3-12" value="+ Boss()" style="text;align=left;verticalAlign=top;spacingLeft=4;spacingRight=4;overflow=hidden;rotatable=0;points=[[0,0.5],[1,0.5]];portConstraint=eastwest;fontSize=14;fontFamily=Fira Code;fontColor=#1D3557;" parent="-YjCPfjcMzY9ik9XaDa3-8" vertex="1">
          <mxGeometry y="60" width="160" height="26" as="geometry" />
        </mxCell>
        <mxCell id="-YjCPfjcMzY9ik9XaDa3-13" value="+ Boss(string)" style="text;align=left;verticalAlign=top;spacingLeft=4;spacingRight=4;overflow=hidden;rotatable=0;points=[[0,0.5],[1,0.5]];portConstraint=eastwest;fontSize=14;fontFamily=Fira Code;fontColor=#1D3557;" parent="-YjCPfjcMzY9ik9XaDa3-8" vertex="1">
          <mxGeometry y="86" width="160" height="26" as="geometry" />
        </mxCell>
        <mxCell id="-YjCPfjcMzY9ik9XaDa3-14" value="+ ~Boss()" style="text;align=left;verticalAlign=top;spacingLeft=4;spacingRight=4;overflow=hidden;rotatable=0;points=[[0,0.5],[1,0.5]];portConstraint=eastwest;fontSize=14;fontFamily=Fira Code;fontColor=#1D3557;fontStyle=2;" parent="-YjCPfjcMzY9ik9XaDa3-8" vertex="1">
          <mxGeometry y="112" width="160" height="26" as="geometry" />
        </mxCell>
        <mxCell id="-YjCPfjcMzY9ik9XaDa3-17" value="+ update() : void" style="text;align=left;verticalAlign=top;spacingLeft=4;spacingRight=4;overflow=hidden;rotatable=0;points=[[0,0.5],[1,0.5]];portConstraint=eastwest;fontSize=14;fontFamily=Fira Code;fontColor=#1D3557;fontStyle=2;" parent="-YjCPfjcMzY9ik9XaDa3-8" vertex="1">
          <mxGeometry y="138" width="160" height="26" as="geometry" />
        </mxCell>
        <mxCell id="lcFVytrIn0AduloStv7e-0" value="+ attack(Character*) : void" style="text;align=left;verticalAlign=top;spacingLeft=4;spacingRight=4;overflow=hidden;rotatable=0;points=[[0,0.5],[1,0.5]];portConstraint=eastwest;fontSize=14;fontFamily=Fira Code;fontColor=#1D3557;fontStyle=0;" parent="-YjCPfjcMzY9ik9XaDa3-8" vertex="1">
          <mxGeometry y="164" width="160" height="26" as="geometry" />
        </mxCell>
        <mxCell id="-YjCPfjcMzY9ik9XaDa3-15" value="+ transmogrify(Character*) : void" style="text;align=left;verticalAlign=top;spacingLeft=4;spacingRight=4;overflow=hidden;rotatable=0;points=[[0,0.5],[1,0.5]];portConstraint=eastwest;fontSize=14;fontFamily=Fira Code;fontColor=#1D3557;fontStyle=0;" parent="-YjCPfjcMzY9ik9XaDa3-8" vertex="1">
          <mxGeometry y="190" width="160" height="26" as="geometry" />
        </mxCell>
        <mxCell id="-YjCPfjcMzY9ik9XaDa3-16" value="+ response() : void" style="text;align=left;verticalAlign=top;spacingLeft=4;spacingRight=4;overflow=hidden;rotatable=0;points=[[0,0.5],[1,0.5]];portConstraint=eastwest;fontSize=14;fontFamily=Fira Code;fontColor=#1D3557;fontStyle=0;" parent="-YjCPfjcMzY9ik9XaDa3-8" vertex="1">
          <mxGeometry y="216" width="160" height="26" as="geometry" />
        </mxCell>
        <mxCell id="-YjCPfjcMzY9ik9XaDa3-20" value="+ getDescription() : void" style="text;align=left;verticalAlign=top;spacingLeft=4;spacingRight=4;overflow=hidden;rotatable=0;points=[[0,0.5],[1,0.5]];portConstraint=eastwest;fontSize=14;fontFamily=Fira Code;fontColor=#1D3557;" parent="-YjCPfjcMzY9ik9XaDa3-8" vertex="1">
          <mxGeometry y="242" width="160" height="26" as="geometry" />
        </mxCell>
        <mxCell id="lcFVytrIn0AduloStv7e-1" value="+ isFriendly() : bool" style="text;align=left;verticalAlign=top;spacingLeft=4;spacingRight=4;overflow=hidden;rotatable=0;points=[[0,0.5],[1,0.5]];portConstraint=eastwest;fontSize=14;fontFamily=Fira Code;fontColor=#1D3557;" parent="-YjCPfjcMzY9ik9XaDa3-8" vertex="1">
          <mxGeometry y="268" width="160" height="26" as="geometry" />
        </mxCell>
        <mxCell id="-YjCPfjcMzY9ik9XaDa3-18" value="+ buff(Character*) : void" style="text;align=left;verticalAlign=top;spacingLeft=4;spacingRight=4;overflow=hidden;rotatable=0;points=[[0,0.5],[1,0.5]];portConstraint=eastwest;fontSize=14;fontFamily=Fira Code;fontColor=#1D3557;fontStyle=2;" parent="-YjCPfjcMzY9ik9XaDa3-8" vertex="1">
          <mxGeometry y="294" width="160" height="26" as="geometry" />
        </mxCell>
        <mxCell id="-YjCPfjcMzY9ik9XaDa3-19" value="+ getState() : BossState*" style="text;align=left;verticalAlign=top;spacingLeft=4;spacingRight=4;overflow=hidden;rotatable=0;points=[[0,0.5],[1,0.5]];portConstraint=eastwest;fontSize=14;fontFamily=Fira Code;fontColor=#1D3557;" parent="-YjCPfjcMzY9ik9XaDa3-8" vertex="1">
          <mxGeometry y="320" width="160" height="26" as="geometry" />
        </mxCell>
        <mxCell id="-YjCPfjcMzY9ik9XaDa3-21" value="+ setState(BossState*) : void" style="text;align=left;verticalAlign=top;spacingLeft=4;spacingRight=4;overflow=hidden;rotatable=0;points=[[0,0.5],[1,0.5]];portConstraint=eastwest;fontSize=14;fontFamily=Fira Code;fontColor=#1D3557;" parent="-YjCPfjcMzY9ik9XaDa3-8" vertex="1">
          <mxGeometry y="346" width="160" height="26" as="geometry" />
        </mxCell>
        <mxCell id="-YjCPfjcMzY9ik9XaDa3-22" value="+ viewState() : void" style="text;align=left;verticalAlign=top;spacingLeft=4;spacingRight=4;overflow=hidden;rotatable=0;points=[[0,0.5],[1,0.5]];portConstraint=eastwest;fontSize=14;fontFamily=Fira Code;fontColor=#1D3557;" parent="-YjCPfjcMzY9ik9XaDa3-8" vertex="1">
          <mxGeometry y="372" width="160" height="26" as="geometry" />
        </mxCell>
        <mxCell id="DnLK7iH7IJfS8Dze8Byu-5" style="edgeStyle=orthogonalEdgeStyle;rounded=0;orthogonalLoop=1;jettySize=auto;html=1;exitX=0;exitY=0.5;exitDx=0;exitDy=0;entryX=1;entryY=0.362;entryDx=0;entryDy=0;entryPerimeter=0;strokeWidth=5;endSize=20;endArrow=block;endFill=1;" edge="1" parent="WIyWlLk6GJQsqaUBKTNV-1" source="J74NwuAcHYbPr4e3c7rj-1" target="U8TSZ5BFKTzv4JTzCLFV-6">
          <mxGeometry relative="1" as="geometry">
            <mxPoint x="1223.4482758620688" y="-432.1724137931034" as="targetPoint" />
          </mxGeometry>
        </mxCell>
        <mxCell id="J74NwuAcHYbPr4e3c7rj-1" value="Dialoger" style="swimlane;fontStyle=2;align=center;verticalAlign=top;childLayout=stackLayout;horizontal=1;startSize=26;horizontalStack=0;resizeParent=1;resizeLast=0;collapsible=1;marginBottom=0;rounded=0;shadow=0;strokeWidth=1;fontSize=14;fontFamily=Fira Code;fillColor=#A8DADC;strokeColor=#457B9D;fontColor=#1D3557;" parent="WIyWlLk6GJQsqaUBKTNV-1" vertex="1" collapsed="1">
          <mxGeometry x="371" y="-236" width="160" height="26" as="geometry">
            <mxRectangle x="1337.5" y="-632" width="316" height="400" as="alternateBounds" />
          </mxGeometry>
        </mxCell>
        <mxCell id="J74NwuAcHYbPr4e3c7rj-7" value="+ ~Dialoger()" style="text;align=left;verticalAlign=top;spacingLeft=4;spacingRight=4;overflow=hidden;rotatable=0;points=[[0,0.5],[1,0.5]];portConstraint=eastwest;fontSize=14;fontFamily=Fira Code;fontColor=#1D3557;fontStyle=2" parent="J74NwuAcHYbPr4e3c7rj-1" vertex="1">
          <mxGeometry y="26" width="160" height="26" as="geometry" />
        </mxCell>
        <mxCell id="DnLK7iH7IJfS8Dze8Byu-0" value="+ get() : const vector&lt;const char*&gt;" style="text;align=left;verticalAlign=top;spacingLeft=4;spacingRight=4;overflow=hidden;rotatable=0;points=[[0,0.5],[1,0.5]];portConstraint=eastwest;fontSize=14;fontFamily=Fira Code;fontColor=#1D3557;fontStyle=2" vertex="1" parent="J74NwuAcHYbPr4e3c7rj-1">
          <mxGeometry y="52" width="160" height="26" as="geometry" />
        </mxCell>
        <mxCell id="DnLK7iH7IJfS8Dze8Byu-6" style="edgeStyle=orthogonalEdgeStyle;rounded=0;orthogonalLoop=1;jettySize=auto;html=1;exitX=0;exitY=0.5;exitDx=0;exitDy=0;entryX=1;entryY=0.5;entryDx=0;entryDy=0;endArrow=block;endFill=1;endSize=20;strokeWidth=5;" edge="1" parent="WIyWlLk6GJQsqaUBKTNV-1" source="DnLK7iH7IJfS8Dze8Byu-1" target="J74NwuAcHYbPr4e3c7rj-1">
          <mxGeometry relative="1" as="geometry" />
        </mxCell>
        <mxCell id="DnLK7iH7IJfS8Dze8Byu-1" value="Dialog" style="swimlane;fontStyle=0;align=center;verticalAlign=top;childLayout=stackLayout;horizontal=1;startSize=26;horizontalStack=0;resizeParent=1;resizeLast=0;collapsible=1;marginBottom=0;rounded=0;shadow=0;strokeWidth=1;fontSize=14;fontFamily=Fira Code;fillColor=#A8DADC;strokeColor=#457B9D;fontColor=#1D3557;" vertex="1" collapsed="1" parent="WIyWlLk6GJQsqaUBKTNV-1">
          <mxGeometry x="611" y="-236" width="160" height="26" as="geometry">
            <mxRectangle x="1727" y="-632" width="316" height="400" as="alternateBounds" />
          </mxGeometry>
        </mxCell>
        <mxCell id="DnLK7iH7IJfS8Dze8Byu-2" value="+ ~Dialog()" style="text;align=left;verticalAlign=top;spacingLeft=4;spacingRight=4;overflow=hidden;rotatable=0;points=[[0,0.5],[1,0.5]];portConstraint=eastwest;fontSize=14;fontFamily=Fira Code;fontColor=#1D3557;fontStyle=2" vertex="1" parent="DnLK7iH7IJfS8Dze8Byu-1">
          <mxGeometry y="26" width="160" height="26" as="geometry" />
        </mxCell>
        <mxCell id="DnLK7iH7IJfS8Dze8Byu-3" value="+ response(Dialoger*) : void" style="text;align=left;verticalAlign=top;spacingLeft=4;spacingRight=4;overflow=hidden;rotatable=0;points=[[0,0.5],[1,0.5]];portConstraint=eastwest;fontSize=14;fontFamily=Fira Code;fontColor=#1D3557;fontStyle=0" vertex="1" parent="DnLK7iH7IJfS8Dze8Byu-1">
          <mxGeometry y="52" width="160" height="26" as="geometry" />
        </mxCell>
        <mxCell id="DnLK7iH7IJfS8Dze8Byu-73" style="edgeStyle=orthogonalEdgeStyle;rounded=0;orthogonalLoop=1;jettySize=auto;html=1;exitX=0.5;exitY=1;exitDx=0;exitDy=0;entryX=0.5;entryY=0;entryDx=0;entryDy=0;endArrow=block;endFill=0;endSize=20;strokeWidth=5;" edge="1" parent="WIyWlLk6GJQsqaUBKTNV-1" source="DnLK7iH7IJfS8Dze8Byu-52" target="J74NwuAcHYbPr4e3c7rj-1">
          <mxGeometry relative="1" as="geometry" />
        </mxCell>
        <mxCell id="DnLK7iH7IJfS8Dze8Byu-52" value="VengefulDialoger" style="swimlane;fontStyle=0;align=center;verticalAlign=top;childLayout=stackLayout;horizontal=1;startSize=26;horizontalStack=0;resizeParent=1;resizeLast=0;collapsible=1;marginBottom=0;rounded=0;shadow=0;strokeWidth=1;fontSize=14;fontFamily=Fira Code;fillColor=#A8DADC;strokeColor=#457B9D;fontColor=#1D3557;" vertex="1" collapsed="1" parent="WIyWlLk6GJQsqaUBKTNV-1">
          <mxGeometry x="119" y="-338" width="160" height="26" as="geometry">
            <mxRectangle x="-34" y="-456" width="350" height="118" as="alternateBounds" />
          </mxGeometry>
        </mxCell>
        <mxCell id="DnLK7iH7IJfS8Dze8Byu-53" value="- dialog : const vector&lt;const char*&gt;" style="text;align=left;verticalAlign=top;spacingLeft=4;spacingRight=4;overflow=hidden;rotatable=0;points=[[0,0.5],[1,0.5]];portConstraint=eastwest;fontSize=14;fontFamily=Fira Code;fontColor=#1D3557;" vertex="1" parent="DnLK7iH7IJfS8Dze8Byu-52">
          <mxGeometry y="26" width="160" height="26" as="geometry" />
        </mxCell>
        <mxCell id="DnLK7iH7IJfS8Dze8Byu-54" value="" style="line;html=1;strokeWidth=1;align=left;verticalAlign=middle;spacingTop=-1;spacingLeft=3;spacingRight=3;rotatable=0;labelPosition=right;points=[];portConstraint=eastwest;fontSize=14;fontFamily=Fira Code;labelBackgroundColor=#F1FAEE;fillColor=#A8DADC;strokeColor=#457B9D;fontColor=#1D3557;" vertex="1" parent="DnLK7iH7IJfS8Dze8Byu-52">
          <mxGeometry y="52" width="160" height="8" as="geometry" />
        </mxCell>
        <mxCell id="DnLK7iH7IJfS8Dze8Byu-55" value="+ VengefulDialoger()" style="text;align=left;verticalAlign=top;spacingLeft=4;spacingRight=4;overflow=hidden;rotatable=0;points=[[0,0.5],[1,0.5]];portConstraint=eastwest;fontSize=14;fontFamily=Fira Code;fontColor=#1D3557;" vertex="1" parent="DnLK7iH7IJfS8Dze8Byu-52">
          <mxGeometry y="60" width="160" height="26" as="geometry" />
        </mxCell>
        <mxCell id="DnLK7iH7IJfS8Dze8Byu-56" value="+ get() : const vector&lt;const char*&gt;" style="text;align=left;verticalAlign=top;spacingLeft=4;spacingRight=4;overflow=hidden;rotatable=0;points=[[0,0.5],[1,0.5]];portConstraint=eastwest;fontSize=14;fontFamily=Fira Code;fontColor=#1D3557;fontStyle=0" vertex="1" parent="DnLK7iH7IJfS8Dze8Byu-52">
          <mxGeometry y="86" width="160" height="26" as="geometry" />
        </mxCell>
        <mxCell id="DnLK7iH7IJfS8Dze8Byu-74" style="edgeStyle=orthogonalEdgeStyle;rounded=0;orthogonalLoop=1;jettySize=auto;html=1;exitX=0.5;exitY=1;exitDx=0;exitDy=0;entryX=0.5;entryY=0;entryDx=0;entryDy=0;endArrow=block;endFill=0;endSize=20;strokeWidth=5;" edge="1" parent="WIyWlLk6GJQsqaUBKTNV-1" source="DnLK7iH7IJfS8Dze8Byu-57" target="J74NwuAcHYbPr4e3c7rj-1">
          <mxGeometry relative="1" as="geometry" />
        </mxCell>
        <mxCell id="DnLK7iH7IJfS8Dze8Byu-57" value="HostileDialoger" style="swimlane;fontStyle=0;align=center;verticalAlign=top;childLayout=stackLayout;horizontal=1;startSize=26;horizontalStack=0;resizeParent=1;resizeLast=0;collapsible=1;marginBottom=0;rounded=0;shadow=0;strokeWidth=1;fontSize=14;fontFamily=Fira Code;fillColor=#A8DADC;strokeColor=#457B9D;fontColor=#1D3557;" vertex="1" collapsed="1" parent="WIyWlLk6GJQsqaUBKTNV-1">
          <mxGeometry x="287" y="-338" width="160" height="26" as="geometry">
            <mxRectangle x="393" y="-525" width="350" height="113" as="alternateBounds" />
          </mxGeometry>
        </mxCell>
        <mxCell id="DnLK7iH7IJfS8Dze8Byu-58" value="- dialog : const vector&lt;const char*&gt;" style="text;align=left;verticalAlign=top;spacingLeft=4;spacingRight=4;overflow=hidden;rotatable=0;points=[[0,0.5],[1,0.5]];portConstraint=eastwest;fontSize=14;fontFamily=Fira Code;fontColor=#1D3557;" vertex="1" parent="DnLK7iH7IJfS8Dze8Byu-57">
          <mxGeometry y="26" width="160" height="26" as="geometry" />
        </mxCell>
        <mxCell id="DnLK7iH7IJfS8Dze8Byu-59" value="" style="line;html=1;strokeWidth=1;align=left;verticalAlign=middle;spacingTop=-1;spacingLeft=3;spacingRight=3;rotatable=0;labelPosition=right;points=[];portConstraint=eastwest;fontSize=14;fontFamily=Fira Code;labelBackgroundColor=#F1FAEE;fillColor=#A8DADC;strokeColor=#457B9D;fontColor=#1D3557;" vertex="1" parent="DnLK7iH7IJfS8Dze8Byu-57">
          <mxGeometry y="52" width="160" height="8" as="geometry" />
        </mxCell>
        <mxCell id="DnLK7iH7IJfS8Dze8Byu-60" value="+ HostileDialoger()" style="text;align=left;verticalAlign=top;spacingLeft=4;spacingRight=4;overflow=hidden;rotatable=0;points=[[0,0.5],[1,0.5]];portConstraint=eastwest;fontSize=14;fontFamily=Fira Code;fontColor=#1D3557;" vertex="1" parent="DnLK7iH7IJfS8Dze8Byu-57">
          <mxGeometry y="60" width="160" height="26" as="geometry" />
        </mxCell>
        <mxCell id="DnLK7iH7IJfS8Dze8Byu-61" value="+ get() : const vector&lt;const char*&gt;" style="text;align=left;verticalAlign=top;spacingLeft=4;spacingRight=4;overflow=hidden;rotatable=0;points=[[0,0.5],[1,0.5]];portConstraint=eastwest;fontSize=14;fontFamily=Fira Code;fontColor=#1D3557;fontStyle=0" vertex="1" parent="DnLK7iH7IJfS8Dze8Byu-57">
          <mxGeometry y="86" width="160" height="26" as="geometry" />
        </mxCell>
        <mxCell id="DnLK7iH7IJfS8Dze8Byu-75" style="edgeStyle=orthogonalEdgeStyle;rounded=0;orthogonalLoop=1;jettySize=auto;html=1;exitX=0.5;exitY=1;exitDx=0;exitDy=0;endArrow=block;endFill=0;endSize=20;strokeWidth=5;entryX=0.5;entryY=0;entryDx=0;entryDy=0;" edge="1" parent="WIyWlLk6GJQsqaUBKTNV-1" source="DnLK7iH7IJfS8Dze8Byu-62" target="J74NwuAcHYbPr4e3c7rj-1">
          <mxGeometry relative="1" as="geometry">
            <mxPoint x="492" y="-255" as="targetPoint" />
          </mxGeometry>
        </mxCell>
        <mxCell id="DnLK7iH7IJfS8Dze8Byu-62" value="FriendlyDialoger" style="swimlane;fontStyle=0;align=center;verticalAlign=top;childLayout=stackLayout;horizontal=1;startSize=26;horizontalStack=0;resizeParent=1;resizeLast=0;collapsible=1;marginBottom=0;rounded=0;shadow=0;strokeWidth=1;fontSize=14;fontFamily=Fira Code;fillColor=#A8DADC;strokeColor=#457B9D;fontColor=#1D3557;" vertex="1" collapsed="1" parent="WIyWlLk6GJQsqaUBKTNV-1">
          <mxGeometry x="455" y="-338" width="160" height="26" as="geometry">
            <mxRectangle x="1021" y="-632" width="350" height="220" as="alternateBounds" />
          </mxGeometry>
        </mxCell>
        <mxCell id="DnLK7iH7IJfS8Dze8Byu-63" value="- dialog : const vector&lt;const char*&gt;" style="text;align=left;verticalAlign=top;spacingLeft=4;spacingRight=4;overflow=hidden;rotatable=0;points=[[0,0.5],[1,0.5]];portConstraint=eastwest;fontSize=14;fontFamily=Fira Code;fontColor=#1D3557;" vertex="1" parent="DnLK7iH7IJfS8Dze8Byu-62">
          <mxGeometry y="26" width="160" height="26" as="geometry" />
        </mxCell>
        <mxCell id="DnLK7iH7IJfS8Dze8Byu-64" value="" style="line;html=1;strokeWidth=1;align=left;verticalAlign=middle;spacingTop=-1;spacingLeft=3;spacingRight=3;rotatable=0;labelPosition=right;points=[];portConstraint=eastwest;fontSize=14;fontFamily=Fira Code;labelBackgroundColor=#F1FAEE;fillColor=#A8DADC;strokeColor=#457B9D;fontColor=#1D3557;" vertex="1" parent="DnLK7iH7IJfS8Dze8Byu-62">
          <mxGeometry y="52" width="160" height="8" as="geometry" />
        </mxCell>
        <mxCell id="DnLK7iH7IJfS8Dze8Byu-65" value="+ FriendlyDialoger()" style="text;align=left;verticalAlign=top;spacingLeft=4;spacingRight=4;overflow=hidden;rotatable=0;points=[[0,0.5],[1,0.5]];portConstraint=eastwest;fontSize=14;fontFamily=Fira Code;fontColor=#1D3557;" vertex="1" parent="DnLK7iH7IJfS8Dze8Byu-62">
          <mxGeometry y="60" width="160" height="26" as="geometry" />
        </mxCell>
        <mxCell id="DnLK7iH7IJfS8Dze8Byu-66" value="+ get() : const vector&lt;const char*&gt;" style="text;align=left;verticalAlign=top;spacingLeft=4;spacingRight=4;overflow=hidden;rotatable=0;points=[[0,0.5],[1,0.5]];portConstraint=eastwest;fontSize=14;fontFamily=Fira Code;fontColor=#1D3557;fontStyle=0" vertex="1" parent="DnLK7iH7IJfS8Dze8Byu-62">
          <mxGeometry y="86" width="160" height="26" as="geometry" />
        </mxCell>
        <mxCell id="DnLK7iH7IJfS8Dze8Byu-76" style="edgeStyle=orthogonalEdgeStyle;rounded=0;orthogonalLoop=1;jettySize=auto;html=1;exitX=0.5;exitY=1;exitDx=0;exitDy=0;entryX=0.5;entryY=0;entryDx=0;entryDy=0;endArrow=block;endFill=0;endSize=20;strokeWidth=5;" edge="1" parent="WIyWlLk6GJQsqaUBKTNV-1" source="DnLK7iH7IJfS8Dze8Byu-67" target="J74NwuAcHYbPr4e3c7rj-1">
          <mxGeometry relative="1" as="geometry" />
        </mxCell>
        <mxCell id="DnLK7iH7IJfS8Dze8Byu-67" value="DeadDialoger" style="swimlane;fontStyle=0;align=center;verticalAlign=top;childLayout=stackLayout;horizontal=1;startSize=26;horizontalStack=0;resizeParent=1;resizeLast=0;collapsible=1;marginBottom=0;rounded=0;shadow=0;strokeWidth=1;fontSize=14;fontFamily=Fira Code;fillColor=#A8DADC;strokeColor=#457B9D;fontColor=#1D3557;" vertex="1" collapsed="1" parent="WIyWlLk6GJQsqaUBKTNV-1">
          <mxGeometry x="623" y="-338" width="160" height="26" as="geometry">
            <mxRectangle x="1993" y="-943" width="350" height="220" as="alternateBounds" />
          </mxGeometry>
        </mxCell>
        <mxCell id="DnLK7iH7IJfS8Dze8Byu-68" value="- dialog : const vector&lt;const char*&gt;" style="text;align=left;verticalAlign=top;spacingLeft=4;spacingRight=4;overflow=hidden;rotatable=0;points=[[0,0.5],[1,0.5]];portConstraint=eastwest;fontSize=14;fontFamily=Fira Code;fontColor=#1D3557;" vertex="1" parent="DnLK7iH7IJfS8Dze8Byu-67">
          <mxGeometry y="26" width="160" height="26" as="geometry" />
        </mxCell>
        <mxCell id="DnLK7iH7IJfS8Dze8Byu-69" value="" style="line;html=1;strokeWidth=1;align=left;verticalAlign=middle;spacingTop=-1;spacingLeft=3;spacingRight=3;rotatable=0;labelPosition=right;points=[];portConstraint=eastwest;fontSize=14;fontFamily=Fira Code;labelBackgroundColor=#F1FAEE;fillColor=#A8DADC;strokeColor=#457B9D;fontColor=#1D3557;" vertex="1" parent="DnLK7iH7IJfS8Dze8Byu-67">
          <mxGeometry y="52" width="160" height="8" as="geometry" />
        </mxCell>
        <mxCell id="DnLK7iH7IJfS8Dze8Byu-70" value="+ DeadDialoger()" style="text;align=left;verticalAlign=top;spacingLeft=4;spacingRight=4;overflow=hidden;rotatable=0;points=[[0,0.5],[1,0.5]];portConstraint=eastwest;fontSize=14;fontFamily=Fira Code;fontColor=#1D3557;" vertex="1" parent="DnLK7iH7IJfS8Dze8Byu-67">
          <mxGeometry y="60" width="160" height="26" as="geometry" />
        </mxCell>
        <mxCell id="DnLK7iH7IJfS8Dze8Byu-71" value="+ get() : const vector&lt;const char*&gt;" style="text;align=left;verticalAlign=top;spacingLeft=4;spacingRight=4;overflow=hidden;rotatable=0;points=[[0,0.5],[1,0.5]];portConstraint=eastwest;fontSize=14;fontFamily=Fira Code;fontColor=#1D3557;fontStyle=0" vertex="1" parent="DnLK7iH7IJfS8Dze8Byu-67">
          <mxGeometry y="86" width="160" height="26" as="geometry" />
        </mxCell>
      </root>
    </mxGraphModel>
  </diagram>
</mxfile>
